<svg width="99" height="50" viewBox="0 0 99 50" fill="none" xmlns="http://www.w3.org/2000/svg">
<path d="M31.6947 0.00830078C24.8405 0.106314 20.0109 0.150251 15.1812 0.251644C8.15464 0.396974 1.79392 6.07498 0.830688 13.0711C0.644806 14.4298 0.536652 15.8087 0.533272 17.1775C0.516373 22.9569 0.512985 28.7397 0.580582 34.5191C0.671837 42.208 6.20113 47.5582 11.335 49.0859C13.6772 49.7821 16.0768 49.8227 18.4798 49.826C22.1976 49.8328 25.9187 49.7855 29.6364 49.8091C33.9794 49.8362 38.3258 49.8869 42.6688 49.9849C47.8466 50.0998 52.0003 48.1091 55.0522 43.9621C57.0395 41.2617 58.868 38.4497 60.7776 35.6919C61.5583 34.563 62.339 33.4308 63.1671 32.3358C63.9005 31.3624 64.786 30.5445 65.881 29.953C66.1041 29.8313 66.3136 29.4528 66.3136 29.1892C66.344 26.34 66.3373 23.4909 66.3136 20.6384C66.3136 20.439 66.1717 20.1382 66.0094 20.0571C64.3703 19.2425 63.2516 17.9008 62.2545 16.4373C60.1929 13.4192 58.1616 10.3774 56.0898 7.36605C54.6027 5.203 52.8858 3.25288 50.6045 1.87393C48.5327 0.62004 46.2784 0.00830078 43.8585 0.00830078C39.1302 0.00830078 34.3985 0.00830078 31.6913 0.00830078H31.6947ZM29.8798 2.41469C29.8798 2.34372 29.8798 2.27612 29.8798 2.20515C34.0842 2.20515 38.2886 2.20515 42.493 2.20515C45.9235 2.20515 48.9383 3.32047 51.3649 5.75728C52.4971 6.89626 53.5043 8.18057 54.4371 9.49192C56.3467 12.1755 58.1549 14.9266 60.0273 17.6372C60.8249 18.793 61.7408 19.834 63.0386 20.4795C63.2211 20.5708 63.3935 20.8851 63.3935 21.098C63.4138 23.6836 63.4104 26.2725 63.3867 28.858C63.3867 29.0608 63.2448 29.3649 63.0826 29.4461C61.5887 30.1862 60.6153 31.4367 59.7062 32.765C57.6276 35.7966 55.5727 38.8452 53.4502 41.8498C50.6687 45.7906 46.8766 47.8218 42.003 47.7678C35.1319 47.69 28.2642 47.6562 21.3932 47.5886C19.5343 47.5717 17.6653 47.6224 15.8233 47.4264C9.65187 46.764 4.62616 41.9106 3.74405 35.7595C3.49394 34.0087 3.45 32.2141 3.45338 30.4397C3.46352 25.3667 3.33509 20.2835 3.64941 15.2274C4.08878 8.09608 9.8986 2.64114 17.0333 2.43497C21.3154 2.30992 25.601 2.41131 29.8865 2.41131L29.8798 2.41469Z" fill="black"/>
<path d="M70.1156 24.9543C70.1156 26.1677 70.1258 27.381 70.1123 28.591C70.1055 29.0979 70.3015 29.3379 70.8254 29.3278C71.7346 29.3109 72.6437 29.3278 73.5529 29.321C74.1511 29.3176 74.2356 29.1993 74.026 28.6281C73.3704 26.847 72.7045 25.0693 72.0455 23.2915C71.9678 23.0853 71.8461 22.8623 71.8664 22.6595C71.8833 22.477 72.0286 22.2167 72.1841 22.1593C72.3294 22.1052 72.5998 22.2167 72.7383 22.3418C72.8735 22.4668 72.9209 22.6933 72.9918 22.8825C73.6914 24.7549 74.4046 26.6206 75.0771 28.5031C75.2833 29.081 75.5942 29.3751 76.233 29.3109C76.5913 29.2737 76.9597 29.3109 77.3247 29.3109C78.0716 29.3176 78.1324 29.2264 77.8621 28.5031C77.2267 26.7997 76.5913 25.0997 75.9593 23.3963C75.8748 23.1698 75.7497 22.9299 75.7666 22.7034C75.7801 22.5074 75.9322 22.2471 76.0978 22.166C76.2229 22.1052 76.5068 22.237 76.642 22.3654C76.7772 22.4939 76.8245 22.7203 76.8955 22.9062C77.6018 24.7989 78.3217 26.6848 79.001 28.5842C79.1869 29.1047 79.4641 29.3447 80.0217 29.3041C80.4037 29.2771 80.7889 29.3041 81.1742 29.3142C81.9414 29.3311 82.0192 29.2162 81.7387 28.4659C81.1033 26.7625 80.4645 25.0625 79.8325 23.3591C79.748 23.1326 79.6364 22.8893 79.6533 22.6629C79.6669 22.4837 79.8291 22.2269 79.9846 22.1728C80.1265 22.1221 80.4138 22.2438 80.5219 22.3823C80.6909 22.5953 80.7754 22.8825 80.8734 23.1462C81.5359 24.9239 82.2051 26.7017 82.8405 28.4896C83.0432 29.0675 83.344 29.3717 83.993 29.2906C84.3715 29.2433 84.7602 29.2872 85.1421 29.2973C85.8147 29.3142 85.9025 29.2027 85.6659 28.5605C85.0272 26.8369 84.3783 25.1199 83.7361 23.3996C83.6651 23.2104 83.5435 23.011 83.5637 22.8285C83.5874 22.602 83.7327 22.3891 83.824 22.1694C84.0369 22.264 84.287 22.3215 84.4526 22.4702C84.5878 22.5919 84.6351 22.8251 84.7027 23.0144C85.3719 24.8124 86.0411 26.6104 86.7035 28.4085C86.9908 29.1926 87.1666 29.321 87.9878 29.3142C88.3529 29.3109 88.7145 29.3176 89.0795 29.3142C89.671 29.3075 89.7656 29.179 89.5594 28.6146C88.9612 26.9856 88.3529 25.3599 87.7479 23.7342C87.6566 23.4875 87.5586 23.2442 87.4809 22.9941C87.3795 22.6696 87.322 22.335 87.7411 22.1863C88.1636 22.0376 88.3258 22.3384 88.4441 22.6561C89.1606 24.5657 89.8771 26.4719 90.5835 28.3848C90.9147 29.2804 90.9823 29.3311 91.9388 29.3311C93.0676 29.3311 94.1356 29.4089 95.1969 30.0071C96.9442 30.994 98.7828 29.8854 98.8301 27.888C98.8808 25.7891 98.8436 23.6835 98.8099 21.5847C98.7963 20.733 98.6375 19.8644 97.6979 19.5467C96.6502 19.1918 95.5484 18.9789 94.5953 19.8036C94.0917 20.2396 93.5171 20.341 92.9122 20.3579C91.4589 20.3984 90.0022 20.4356 88.5489 20.4356C82.7898 20.4356 77.0273 20.4221 71.2681 20.4153C70.2238 20.4153 70.1156 20.537 70.1258 21.5509C70.1393 22.6831 70.1258 23.8154 70.1258 24.9476C70.1258 24.9476 70.1224 24.9476 70.119 24.9476L70.1156 24.9543Z" fill="black"/>
<path d="M67.7196 24.8833C67.7196 26.1744 67.7196 27.4689 67.7196 28.7599C67.7196 29.081 67.7365 29.3886 68.1894 29.3581C68.5882 29.3311 68.7538 29.1182 68.7504 28.7261C68.7369 26.1609 68.7335 23.5957 68.7268 21.0304C68.7268 20.6384 68.551 20.4153 68.1522 20.4119C67.7264 20.4052 67.75 20.7161 67.75 21.0068C67.75 22.2978 67.75 23.5923 67.75 24.8833H67.7196Z" fill="black"/>
<path d="M30.3866 3.50299C26.4458 3.50299 22.505 3.47595 18.5642 3.50975C10.8651 3.57397 5.13981 9.1641 4.99448 16.8767C4.89309 22.2911 4.88971 27.7089 4.99448 33.1233C5.14319 40.7919 10.8618 46.3719 18.5304 46.4733C20.1054 46.4936 21.6838 46.4699 23.2587 46.4801C29.3186 46.5274 35.3819 46.5409 41.4419 46.6423C46.1837 46.72 49.8338 44.7699 52.5207 40.9406C54.5182 38.0983 56.4649 35.2187 58.4286 32.3527C59.2803 31.1089 60.2063 29.9497 61.592 29.2399C61.7678 29.1486 61.9097 28.8208 61.9131 28.6011C61.9368 26.1745 61.9401 23.7512 61.9131 21.3245C61.9131 21.098 61.7171 20.7702 61.521 20.6688C60.4463 20.1112 59.6284 19.2831 58.9524 18.3131C57.0631 15.5924 55.2076 12.848 53.3285 10.1206C52.2706 8.58616 51.1215 7.12948 49.6581 5.94656C47.4477 4.15867 44.9027 3.33062 42.084 3.32049C38.1838 3.31035 34.2835 3.32049 30.3833 3.32049C30.3833 3.38132 30.3833 3.44216 30.3833 3.49961L30.3866 3.50299Z" fill="black"/>
</svg>
