<svg width="65" height="23" viewBox="0 0 65 23" fill="none" xmlns="http://www.w3.org/2000/svg">
<rect width="65" height="23" fill="#1E1E1E"/>
<g clip-path="url(#clip0_0_1)">
<rect width="1920" height="3489" transform="translate(-1602 -40)" fill="black"/>
<rect x="-1651.5" y="-80.5" width="2052" height="134" fill="black" stroke="#B9E018"/>
<circle cx="11.6821" cy="5.71429" r="4.71429" stroke="white" stroke-width="2"/>
<mask id="path-3-inside-1_0_1" fill="white">
<path d="M2.50221 9.48663C2.76026 7.49258 4.45845 6 6.46913 6H17.0377C19.0484 6 20.7466 7.49258 21.0046 9.48663L22.1693 18.4866C22.479 20.8796 20.6154 23 18.2024 23H5.30442C2.89146 23 1.02782 20.8796 1.3375 18.4866L2.50221 9.48663Z"/>
</mask>
<path d="M2.50221 9.48663C2.76026 7.49258 4.45845 6 6.46913 6H17.0377C19.0484 6 20.7466 7.49258 21.0046 9.48663L22.1693 18.4866C22.479 20.8796 20.6154 23 18.2024 23H5.30442C2.89146 23 1.02782 20.8796 1.3375 18.4866L2.50221 9.48663Z" fill="#F1F2F3" stroke="white" stroke-width="4" mask="url(#path-3-inside-1_0_1)"/>
<circle cx="49.2534" cy="12" r="1" fill="white"/>
<circle cx="53.8247" cy="12" r="1" fill="white"/>
<circle cx="60.2534" cy="6.28577" r="3.35" fill="#B9E018" stroke="white" stroke-width="1.3"/>
</g>
<defs>
<clipPath id="clip0_0_1">
<rect width="1920" height="3489" fill="white" transform="translate(-1602 -40)"/>
</clipPath>
</defs>
</svg>
