<svg width="29" height="29" viewBox="0 0 29 29" fill="none" xmlns="http://www.w3.org/2000/svg">
<path d="M26.4677 18.9853C26.4677 23.2538 23.923 25.7985 19.6545 25.7985H18.259C17.6141 25.7985 17.0864 25.2708 17.0864 24.6258V17.8596C17.0864 17.5429 17.3443 17.2732 17.6609 17.2732L19.7248 17.238C19.889 17.2263 20.0297 17.1091 20.0649 16.9449L20.4754 14.7051C20.5105 14.494 20.3464 14.2947 20.1235 14.2947L17.6258 14.3298C17.2974 14.3298 17.0395 14.0719 17.0277 13.7552L16.9808 10.8822C16.9808 10.6946 17.1333 10.5304 17.3326 10.5304L20.147 10.4835C20.3463 10.4835 20.4988 10.3311 20.4988 10.1317L20.4519 7.31729C20.4519 7.11794 20.2995 6.96551 20.1001 6.96551L16.9339 7.01242C14.9873 7.04761 13.4394 8.64241 13.4746 10.589L13.5332 13.8139C13.5449 14.1422 13.2869 14.4002 12.9586 14.4119L11.5514 14.4354C11.352 14.4354 11.1996 14.5878 11.1996 14.7871L11.2348 17.0152C11.2348 17.2146 11.3872 17.367 11.5866 17.367L12.9938 17.3436C13.3221 17.3436 13.5801 17.6016 13.5918 17.9182L13.6973 24.6024C13.7091 25.2591 13.1814 25.7985 12.5247 25.7985H9.82757C5.55908 25.7985 3.0144 23.2538 3.0144 18.9736V9.15838C3.0144 4.88989 5.55908 2.34521 9.82757 2.34521H19.6545C23.923 2.34521 26.4677 4.88989 26.4677 9.15838V18.9853Z" fill="#B9E018"/>
</svg>
