<svg width="29" height="29" viewBox="0 0 29 29" fill="none" xmlns="http://www.w3.org/2000/svg">
<path d="M18.9853 2.34521H9.15838C4.88989 2.34521 2.34521 4.88989 2.34521 9.15838V18.9736C2.34521 23.2538 4.88989 25.7985 9.15838 25.7985H18.9736C23.2421 25.7985 25.7867 23.2538 25.7867 18.9853V9.15838C25.7985 4.88989 23.2538 2.34521 18.9853 2.34521ZM14.0718 18.6218C11.5623 18.6218 9.52191 16.5813 9.52191 14.0718C9.52191 11.5623 11.5623 9.52191 14.0718 9.52191C16.5813 9.52191 18.6218 11.5623 18.6218 14.0718C18.6218 16.5813 16.5813 18.6218 14.0718 18.6218ZM21.014 8.06781C20.9554 8.20853 20.8733 8.33752 20.7677 8.45479C20.6505 8.56033 20.5215 8.64241 20.3808 8.70105C20.24 8.75968 20.0876 8.79486 19.9352 8.79486C19.6185 8.79486 19.3254 8.67759 19.1026 8.45479C18.997 8.33752 18.9149 8.20853 18.8563 8.06781C18.7977 7.92709 18.7625 7.77464 18.7625 7.6222C18.7625 7.46975 18.7977 7.3173 18.8563 7.17658C18.9149 7.02414 18.997 6.90687 19.1026 6.78961C19.3723 6.51989 19.7827 6.3909 20.158 6.47299C20.24 6.48471 20.3104 6.50817 20.3808 6.54335C20.4511 6.5668 20.5215 6.60198 20.5918 6.64889C20.6505 6.68407 20.7091 6.7427 20.7677 6.78961C20.8733 6.90687 20.9554 7.02414 21.014 7.17658C21.0726 7.3173 21.1078 7.46975 21.1078 7.6222C21.1078 7.77464 21.0726 7.92709 21.014 8.06781Z" fill="#B9E018"/>
</svg>
