<svg width="99" height="50" viewBox="0 0 99 50" fill="none" xmlns="http://www.w3.org/2000/svg">
<path d="M67.3053 0.00830078C74.1595 0.106314 78.9891 0.150251 83.8188 0.251644C90.8454 0.396974 97.2061 6.07498 98.1693 13.0711C98.3552 14.4298 98.4633 15.8087 98.4667 17.1775C98.4836 22.9569 98.487 28.7397 98.4194 34.5191C98.3282 42.208 92.7989 47.5582 87.665 49.0859C85.3228 49.7821 82.9232 49.8227 80.5202 49.826C76.8024 49.8328 73.0813 49.7855 69.3636 49.8091C65.0206 49.8362 60.6742 49.8869 56.3312 49.9849C51.1534 50.0998 46.9997 48.1091 43.9478 43.9621C41.9605 41.2617 40.132 38.4497 38.2224 35.6919C37.4417 34.563 36.661 33.4308 35.8329 32.3358C35.0995 31.3624 34.214 30.5445 33.119 29.953C32.8959 29.8313 32.6864 29.4528 32.6864 29.1892C32.656 26.34 32.6627 23.4909 32.6864 20.6384C32.6864 20.439 32.8283 20.1382 32.9906 20.0571C34.6297 19.2425 35.7484 17.9008 36.7455 16.4373C38.8071 13.4192 40.8384 10.3774 42.9102 7.36605C44.3973 5.203 46.1142 3.25288 48.3955 1.87393C50.4673 0.62004 52.7216 0.00830078 55.1415 0.00830078C59.8698 0.00830078 64.6015 0.00830078 67.3087 0.00830078H67.3053ZM69.1202 2.41469C69.1202 2.34372 69.1202 2.27612 69.1202 2.20515C64.9158 2.20515 60.7114 2.20515 56.507 2.20515C53.0765 2.20515 50.0617 3.32047 47.6351 5.75728C46.5029 6.89626 45.4957 8.18057 44.5629 9.49192C42.6533 12.1755 40.8451 14.9266 38.9727 17.6372C38.1751 18.793 37.2592 19.834 35.9614 20.4795C35.7789 20.5708 35.6065 20.8851 35.6065 21.098C35.5862 23.6836 35.5896 26.2725 35.6133 28.858C35.6133 29.0608 35.7552 29.3649 35.9174 29.4461C37.4113 30.1862 38.3847 31.4367 39.2938 32.765C41.3724 35.7966 43.4273 38.8452 45.5498 41.8498C48.3313 45.7906 52.1234 47.8218 56.997 47.7678C63.8681 47.69 70.7358 47.6562 77.6068 47.5886C79.4657 47.5717 81.3347 47.6224 83.1767 47.4264C89.3481 46.764 94.3738 41.9106 95.256 35.7595C95.5061 34.0087 95.55 32.2141 95.5466 30.4397C95.5365 25.3667 95.6649 20.2835 95.3506 15.2274C94.9112 8.09608 89.1014 2.64114 81.9667 2.43497C77.6846 2.30992 73.399 2.41131 69.1135 2.41131L69.1202 2.41469Z" fill="black"/>
<path d="M28.8844 24.9543C28.8844 26.1677 28.8742 27.381 28.8877 28.591C28.8945 29.0979 28.6985 29.3379 28.1746 29.3278C27.2654 29.3109 26.3563 29.3278 25.4471 29.321C24.8489 29.3176 24.7644 29.1993 24.974 28.6281C25.6296 26.847 26.2955 25.0693 26.9545 23.2915C27.0322 23.0853 27.1539 22.8623 27.1336 22.6595C27.1167 22.477 26.9714 22.2167 26.8159 22.1593C26.6706 22.1052 26.4002 22.2167 26.2617 22.3418C26.1265 22.4668 26.0791 22.6933 26.0082 22.8825C25.3086 24.7549 24.5954 26.6206 23.9229 28.5031C23.7167 29.081 23.4058 29.3751 22.767 29.3109C22.4087 29.2737 22.0403 29.3109 21.6753 29.3109C20.9284 29.3176 20.8676 29.2264 21.1379 28.5031C21.7733 26.7997 22.4087 25.0997 23.0407 23.3963C23.1252 23.1698 23.2503 22.9299 23.2334 22.7034C23.2199 22.5074 23.0678 22.2471 22.9022 22.166C22.7771 22.1052 22.4932 22.237 22.358 22.3654C22.2228 22.4939 22.1755 22.7203 22.1045 22.9062C21.3982 24.7989 20.6783 26.6848 19.999 28.5842C19.8131 29.1047 19.5359 29.3447 18.9783 29.3041C18.5963 29.2771 18.2111 29.3041 17.8258 29.3142C17.0586 29.3311 16.9808 29.2162 17.2613 28.4659C17.8967 26.7625 18.5355 25.0625 19.1675 23.3591C19.252 23.1326 19.3636 22.8893 19.3467 22.6629C19.3331 22.4837 19.1709 22.2269 19.0154 22.1728C18.8735 22.1221 18.5862 22.2438 18.4781 22.3823C18.3091 22.5953 18.2246 22.8825 18.1266 23.1462C17.4641 24.9239 16.7949 26.7017 16.1595 28.4896C15.9568 29.0675 15.656 29.3717 15.007 29.2906C14.6285 29.2433 14.2398 29.2872 13.8579 29.2973C13.1853 29.3142 13.0975 29.2027 13.3341 28.5605C13.9728 26.8369 14.6217 25.1199 15.2639 23.3996C15.3349 23.2104 15.4565 23.011 15.4363 22.8285C15.4126 22.602 15.2673 22.3891 15.176 22.1694C14.9631 22.264 14.713 22.3215 14.5474 22.4702C14.4122 22.5919 14.3649 22.8251 14.2973 23.0144C13.6281 24.8124 12.9589 26.6104 12.2965 28.4085C12.0092 29.1926 11.8334 29.321 11.0122 29.3142C10.6471 29.3109 10.2855 29.3176 9.92049 29.3142C9.32903 29.3075 9.2344 29.179 9.44057 28.6146C10.0388 26.9856 10.6471 25.3599 11.2521 23.7342C11.3434 23.4875 11.4414 23.2442 11.5191 22.9941C11.6205 22.6696 11.678 22.335 11.2589 22.1863C10.8364 22.0376 10.6742 22.3384 10.5559 22.6561C9.83938 24.5657 9.12287 26.4719 8.4165 28.3848C8.08528 29.2804 8.01769 29.3311 7.06121 29.3311C5.93237 29.3311 4.86437 29.4089 3.80312 30.0071C2.05578 30.994 0.217188 29.8854 0.169872 27.888C0.119175 25.7891 0.156352 23.6835 0.190149 21.5847C0.203669 20.733 0.362518 19.8644 1.30209 19.5467C2.34982 19.1918 3.45162 18.9789 4.40472 19.8036C4.9083 20.2396 5.48286 20.341 6.08784 20.3579C7.54114 20.3984 8.99782 20.4356 10.4511 20.4356C16.2102 20.4356 21.9727 20.4221 27.7319 20.4153C28.7762 20.4153 28.8844 20.537 28.8742 21.5509C28.8607 22.6831 28.8742 23.8154 28.8742 24.9476C28.8742 24.9476 28.8776 24.9476 28.881 24.9476L28.8844 24.9543Z" fill="black"/>
<path d="M31.2804 24.8833C31.2804 26.1744 31.2804 27.4689 31.2804 28.7599C31.2804 29.081 31.2635 29.3886 30.8106 29.3581C30.4118 29.3311 30.2462 29.1182 30.2496 28.7261C30.2631 26.1609 30.2665 23.5957 30.2732 21.0304C30.2732 20.6384 30.449 20.4153 30.8478 20.4119C31.2736 20.4052 31.25 20.7161 31.25 21.0068C31.25 22.2978 31.25 23.5923 31.25 24.8833H31.2804Z" fill="black"/>
<path d="M68.6134 3.50299C72.5542 3.50299 76.495 3.47595 80.4358 3.50975C88.1349 3.57397 93.8602 9.1641 94.0055 16.8767C94.1069 22.2911 94.1103 27.7089 94.0055 33.1233C93.8568 40.7919 88.1382 46.3719 80.4696 46.4733C78.8946 46.4936 77.3162 46.4699 75.7413 46.4801C69.6814 46.5274 63.6181 46.5409 57.5581 46.6423C52.8163 46.72 49.1662 44.7699 46.4793 40.9406C44.4818 38.0983 42.5351 35.2187 40.5714 32.3527C39.7197 31.1089 38.7937 29.9497 37.408 29.2399C37.2322 29.1486 37.0903 28.8208 37.0869 28.6011C37.0632 26.1745 37.0599 23.7512 37.0869 21.3245C37.0869 21.098 37.2829 20.7702 37.479 20.6688C38.5537 20.1112 39.3716 19.2831 40.0476 18.3131C41.9369 15.5924 43.7924 12.848 45.6715 10.1206C46.7294 8.58616 47.8785 7.12948 49.3419 5.94656C51.5523 4.15867 54.0973 3.33062 56.916 3.32049C60.8162 3.31035 64.7165 3.32049 68.6167 3.32049C68.6167 3.38132 68.6167 3.44216 68.6167 3.49961L68.6134 3.50299Z" fill="black"/>
</svg>
