<svg width="29" height="29" viewBox="0 0 29 29" fill="none" xmlns="http://www.w3.org/2000/svg">
<path d="M27.3452 8.53819L24.0581 11.8253C23.3941 19.5231 16.9023 25.5059 9.13306 25.5059C7.53677 25.5059 6.22083 25.253 5.2215 24.7539C4.41566 24.3504 4.08585 23.9184 4.0034 23.7953C3.92987 23.685 3.88222 23.5596 3.86399 23.4283C3.84577 23.297 3.85744 23.1633 3.89814 23.0372C3.93884 22.9111 4.00752 22.7958 4.09904 22.7C4.19055 22.6041 4.30255 22.5302 4.42665 22.4837C4.45524 22.4727 7.09153 21.4602 8.76587 19.533C7.83732 18.7696 7.02675 17.8731 6.36045 16.8725C4.99723 14.8486 3.4713 11.3328 3.94183 6.0789C3.95674 5.91195 4.01905 5.75275 4.12142 5.62003C4.22378 5.48731 4.36193 5.3866 4.51961 5.32977C4.67729 5.27293 4.84793 5.26234 5.01143 5.29923C5.17493 5.33612 5.32448 5.41897 5.44247 5.53801C5.48095 5.57648 9.10118 9.17693 13.5272 10.3445V9.67494C13.5256 8.97288 13.6644 8.27757 13.9355 7.62997C14.2066 6.98236 14.6046 6.39556 15.1059 5.9041C15.5929 5.41787 16.1722 5.0341 16.8099 4.77542C17.4475 4.51674 18.1305 4.3884 18.8185 4.39796C19.7415 4.40706 20.6464 4.65483 21.4453 5.11717C22.2442 5.57952 22.9099 6.2407 23.3776 7.03645H26.723C26.8971 7.03631 27.0672 7.08782 27.212 7.18445C27.3567 7.28108 27.4696 7.41849 27.5362 7.57928C27.6028 7.74008 27.6202 7.91702 27.5863 8.08772C27.5523 8.25842 27.4684 8.41519 27.3452 8.53819Z" fill="#B9E018"/>
</svg>
